<?xml version="1.0" encoding="UTF-8"?>
<svg id="Audio" xmlns="http://www.w3.org/2000/svg" viewBox="30 60 400 505">
  <defs>
    <style>
      .cls-1 {
        fill: #fff;
      }

      .cls-2 {
        fill: #9e39ff;
      }
    </style>
  </defs>
  <path class="cls-2" d="m430.42,136.94v425H105.42c-41.42,0-75-33.58-75-75V61.94h325c41.42,0,75,33.58,75,75Z"/>
  <path class="cls-1" d="m345,362.85c0,20.43-16.57,37-37,37-6.32,0-12.27-1.58-17.47-4.38v-65.24c3.18-1.71,6.63-2.96,10.28-3.68v-16.12c0-36.9-29.91-66.81-66.81-66.81s-66.81,29.91-66.81,66.81v16.12c3.65.72,7.1,1.97,10.28,3.68v65.24c-5.2,2.8-11.15,4.38-17.47,4.38-20.43,0-37-16.57-37-37,0-17.61,12.3-32.34,28.78-36.09v-16.33h.01c-.01-.34-.01-.68-.01-1.03,0-45.41,36.82-82.22,82.22-82.22s82.22,36.82,82.22,82.22c0,.35,0,.69-.01,1.03h.01v16.33c16.48,3.74,28.78,18.48,28.78,36.09Z"/>
</svg>