<svg width="20" height="20" viewBox="0 0 20 20" fill="none" xmlns="http://www.w3.org/2000/svg">
<path fill-rule="evenodd" clip-rule="evenodd" d="M17.3389 6.35293L16.8202 5.45285C16.3814 4.69125 15.409 4.42852 14.6463 4.86552C14.2833 5.07937 13.8501 5.14005 13.4423 5.03416C13.0345 4.92827 12.6855 4.66452 12.4724 4.30106C12.3353 4.07004 12.2616 3.80691 12.2588 3.53829C12.2712 3.1076 12.1087 2.69025 11.8084 2.38131C11.5081 2.07237 11.0955 1.89814 10.6646 1.89832H9.61962C9.19751 1.89832 8.7928 2.06651 8.49504 2.36571C8.19728 2.6649 8.03102 3.07041 8.03305 3.49252C8.02054 4.36402 7.31044 5.06393 6.43885 5.06384C6.17022 5.06105 5.90709 4.98737 5.67607 4.85026C4.91343 4.41326 3.94097 4.676 3.50216 5.4376L2.94533 6.35293C2.50705 7.11358 2.76621 8.08542 3.52504 8.52684C4.01829 8.81162 4.32215 9.33791 4.32215 9.90747C4.32215 10.477 4.01829 11.0033 3.52504 11.2881C2.76717 11.7265 2.50773 12.696 2.94533 13.4544L3.47165 14.3621C3.67725 14.7331 4.02221 15.0068 4.4302 15.1228C4.83819 15.2387 5.27557 15.1873 5.64556 14.9799C6.00927 14.7677 6.4427 14.7096 6.84949 14.8184C7.25628 14.9273 7.60274 15.1941 7.81184 15.5596C7.94895 15.7907 8.02263 16.0538 8.02542 16.3224C8.02542 17.2029 8.73917 17.9166 9.61962 17.9166H10.6646C11.5421 17.9166 12.2546 17.2075 12.2588 16.33C12.2568 15.9066 12.4241 15.4999 12.7235 15.2005C13.0229 14.9011 13.4296 14.7338 13.853 14.7358C14.121 14.743 14.3831 14.8164 14.6158 14.9494C15.3765 15.3877 16.3483 15.1285 16.7897 14.3697L17.3389 13.4544C17.5515 13.0895 17.6098 12.6549 17.501 12.2469C17.3922 11.8389 17.1252 11.491 16.7592 11.2805C16.3932 11.0699 16.1262 10.7221 16.0174 10.314C15.9086 9.90601 15.9669 9.47143 16.1795 9.10655C16.3177 8.8652 16.5179 8.66508 16.7592 8.52684C17.5135 8.08566 17.772 7.1195 17.3389 6.36056V6.35293Z" stroke="black" stroke-width="1.5" stroke-linecap="round" stroke-linejoin="round"/>
<path d="M10.146 12.1043C11.3593 12.1043 12.3428 11.1207 12.3428 9.90749C12.3428 8.69423 11.3593 7.71069 10.146 7.71069C8.93276 7.71069 7.94922 8.69423 7.94922 9.90749C7.94922 11.1207 8.93276 12.1043 10.146 12.1043Z" stroke="black" stroke-width="1.5" stroke-linecap="round" stroke-linejoin="round"/>
</svg>
